<svg style="display: none;" width="0" height="0" version="1.1" xmlns="http://www.w3.org/2000/svg" xmlns:xlink="http://www.w3.org/1999/xlink">
  <symbol id="eye-close" viewBox="0 0 16 13">
    <path d="M7.99996 2.66667C9.83996 2.66667 11.3333 4.16 11.3333 6C11.3333 6.43333 11.2466 6.84 11.0933 7.22L13.04 9.16667C14.0466 8.32667 14.84 7.24 15.3266 6C14.1733 3.07333 11.3266 1 7.99329 1C7.05996 1 6.16663 1.16667 5.33996 1.46667L6.77996 2.90667C7.15996 2.75333 7.56663 2.66667 7.99996 2.66667ZM1.33329 0.846667L2.85329 2.36667L3.15996 2.67333C2.05329 3.53333 1.18663 4.68 0.666626 6C1.81996 8.92667 4.66663 11 7.99996 11C9.03329 11 10.02 10.8 10.92 10.44L11.2 10.72L13.1533 12.6667L14 11.82L2.17996 0L1.33329 0.846667ZM5.01996 4.53333L6.05329 5.56667C6.01996 5.70667 5.99996 5.85333 5.99996 6C5.99996 7.10667 6.89329 8 7.99996 8C8.14663 8 8.29329 7.98 8.43329 7.94667L9.46663 8.98C9.01996 9.2 8.52663 9.33333 7.99996 9.33333C6.15996 9.33333 4.66663 7.84 4.66663 6C4.66663 5.47333 4.79996 4.98 5.01996 4.53333ZM7.89329 4.01333L9.99329 6.11333L10.0066 6.00667C10.0066 4.9 9.11329 4.00667 8.00663 4.00667L7.89329 4.01333Z"/>
  </symbol>
  <symbol id="eye" viewBox="0 0 16 10">
    <path d="M7.99996 0C4.66663 0 1.81996 2.07333 0.666626 5C1.81996 7.92667 4.66663 10 7.99996 10C11.3333 10 14.18 7.92667 15.3333 5C14.18 2.07333 11.3333 0 7.99996 0ZM7.99996 8.33333C6.15996 8.33333 4.66663 6.84 4.66663 5C4.66663 3.16 6.15996 1.66667 7.99996 1.66667C9.83996 1.66667 11.3333 3.16 11.3333 5C11.3333 6.84 9.83996 8.33333 7.99996 8.33333ZM7.99996 3C6.89329 3 5.99996 3.89333 5.99996 5C5.99996 6.10667 6.89329 7 7.99996 7C9.10663 7 9.99996 6.10667 9.99996 5C9.99996 3.89333 9.10663 3 7.99996 3Z"/>
  </symbol>
</svg>
